<?xml version="1.0" encoding="iso-8859-1"?>
<!-- Generator: Adobe Illustrator 17.1.0, SVG Export Plug-In . SVG Version: 6.00 Build 0)  -->
<!DOCTYPE svg PUBLIC "-//W3C//DTD SVG 1.1//EN" "http://www.w3.org/Graphics/SVG/1.1/DTD/svg11.dtd">
<svg xmlns="http://www.w3.org/2000/svg" xmlns:xlink="http://www.w3.org/1999/xlink" version="1.1" id="Capa_1" x="0px" y="0px" viewBox="0 0 258.103 258.103" style="enable-background:new 0 0 258.103 258.103;" xml:space="preserve" width="512px" height="512px">
<g>
	<path d="M248.903,71.976c-0.973,0-1.971,0.14-2.968,0.414l-11.278,3.106l-11.713-28.531c-3.317-8.082-13.125-14.657-21.862-14.657   H91.474c-8.736,0-18.545,6.575-21.863,14.657L57.915,75.457L46.777,72.39c-0.997-0.274-1.995-0.414-2.968-0.414   c-5.331,0-9.199,4.072-9.199,9.683v6.649c0,0.272,0.022,0.539,0.041,0.808c-4.643,2.927-9.001,6.375-12.977,10.351   C7.698,113.442,0,132.026,0,151.793c0,19.768,7.698,38.351,21.675,52.326c13.978,13.977,32.561,21.676,52.327,21.676   c19.766,0,38.35-7.698,52.327-21.676c8.147-8.146,14.143-17.865,17.742-28.465h68.936v14.154c0,6.549,5.328,11.877,11.877,11.877   h15.511c6.549,0,11.877-5.328,11.877-11.877v-56.68c0-8.118-2.507-20.831-5.59-28.34l-1.891-4.604h1.434   c6.549,0,11.877-5.328,11.877-11.877v-6.649C258.103,76.048,254.234,71.976,248.903,71.976z M84.147,50.58   c1.984-4.835,7.885-8.79,13.11-8.79h98.041c5.225,0,11.126,3.955,13.11,8.79l17.717,43.154c1.984,4.835-0.668,8.79-5.894,8.79   h-91.025c-0.931-1.04-1.885-2.064-2.879-3.059c-13.979-13.978-32.562-21.675-52.327-21.675c-0.347,0-0.689,0.02-1.035,0.025   L84.147,50.58z M110.667,188.457c-9.795,9.794-22.815,15.189-36.665,15.189s-26.871-5.395-36.665-15.189   c-9.794-9.793-15.186-22.813-15.186-36.664s5.394-26.871,15.186-36.665c9.794-9.793,22.816-15.187,36.665-15.187   s26.871,5.394,36.665,15.187c9.793,9.794,15.187,22.814,15.187,36.665S120.461,178.664,110.667,188.457z M229.413,148.318   c0,2.613-2.138,4.751-4.751,4.751h-33.653c-2.613,0-4.751-2.138-4.751-4.751v-16.152c0-2.613,2.138-4.751,4.751-4.751h33.653   c2.613,0,4.751,2.138,4.751,4.751V148.318z" fill="#138e10"/>
	<path d="M72.364,116.139c-0.468,0-2.803,0.165-2.859,3.405c-0.102,5.883-5.377,12.525-10.479,18.95   c-5.85,7.366-11.898,14.983-11.372,22.657c0.909,13.236,11.792,22.843,25.878,22.844h0.001c0.708,0,1.429-0.025,2.142-0.074   c7.119-0.488,13.544-3.346,18.09-8.046c4.706-4.865,7.035-11.379,6.557-18.339C99.524,145.93,79.407,116.139,72.364,116.139z" fill="#138e10"/>
</g>
<g>
</g>
<g>
</g>
<g>
</g>
<g>
</g>
<g>
</g>
<g>
</g>
<g>
</g>
<g>
</g>
<g>
</g>
<g>
</g>
<g>
</g>
<g>
</g>
<g>
</g>
<g>
</g>
<g>
</g>
</svg>
