<?xml version="1.0" encoding="iso-8859-1"?>
<!-- Generator: Adobe Illustrator 19.0.0, SVG Export Plug-In . SVG Version: 6.00 Build 0)  -->
<svg xmlns="http://www.w3.org/2000/svg" xmlns:xlink="http://www.w3.org/1999/xlink" version="1.1" id="Capa_1" x="0px" y="0px" viewBox="0 0 512 512" style="enable-background:new 0 0 512 512;" xml:space="preserve" width="512px" height="512px">
<g>
	<g>
		<g>
			<circle cx="106.667" cy="106.667" r="21.333" fill="#138e10"/>
			<circle cx="213.333" cy="106.667" r="21.333" fill="#138e10"/>
			<circle cx="170.667" cy="64" r="21.333" fill="#138e10"/>
			<circle cx="106.667" cy="21.333" r="21.333" fill="#138e10"/>
			<circle cx="170.667" cy="149.333" r="21.333" fill="#138e10"/>
			<circle cx="106.667" cy="192" r="21.333" fill="#138e10"/>
			<circle cx="21.333" cy="106.667" r="21.333" fill="#138e10"/>
			<path d="M362.667,213.333c-42.667,27.733-128,64-128,192V448h275.2c-5.537-54.554-30.527-105.291-70.4-142.933     c-10.592-9.108-16.8-22.299-17.067-36.267c0-21.333,4.267-49.067,4.267-55.467H362.667z" fill="#138e10"/>
			<path d="M234.667,469.333v21.333c0,11.782,9.551,21.333,21.333,21.333h234.667c11.782,0,21.333-9.551,21.333-21.333     c0-6.4,0-14.933,0-21.333H234.667z" fill="#138e10"/>
			<path d="M298.667,192H320l14.933-57.6c20.492,11.406,31.596,34.468,27.733,57.6H435.2l12.8-36.267v-49.067     c0-11.782-9.551-21.333-21.333-21.333H256V128h42.667V192z" fill="#138e10"/>
		</g>
	</g>
</g>
<g>
</g>
<g>
</g>
<g>
</g>
<g>
</g>
<g>
</g>
<g>
</g>
<g>
</g>
<g>
</g>
<g>
</g>
<g>
</g>
<g>
</g>
<g>
</g>
<g>
</g>
<g>
</g>
<g>
</g>
</svg>
