<?xml version="1.0"?>
<svg xmlns="http://www.w3.org/2000/svg" height="512px" viewBox="0 -72 384 384" width="512px"><path d="m368 80h-55.160156l-34.078125-54.230469c-8.296875-15.921875-24.523438-25.769531-42.539063-25.769531h-76.222656c-8.832031 0-16 7.167969-16 16v64h-128c-8.832031 0-16 7.167969-16 16v72c0 17.648438 14.351562 32 32 32h16.71875c3.824219 22.664062 23.539062 40 47.28125 40s43.449219-17.335938 47.28125-40h97.4375c3.824219 22.664062 23.539062 40 47.28125 40s43.449219-17.335938 47.28125-40h16.71875c17.648438 0 32-14.351562 32-32v-72c0-8.832031-7.167969-16-16-16zm-131.777344-48c6.105469 0 11.585938 3.382812 14.3125 8.839844.234375.464844.488282.921875.769532 1.359375l23.742187 37.800781h-99.046875v-48zm-140.222656 176c-8.824219 0-16-7.175781-16-16s7.175781-16 16-16 16 7.175781 16 16-7.175781 16-16 16zm192 0c-8.824219 0-16-7.175781-16-16s7.175781-16 16-16 16 7.175781 16 16-7.175781 16-16 16zm64-40h-22.496094c-8.3125-14.320312-23.785156-24-41.503906-24s-33.191406 9.679688-41.503906 24h-108.992188c-8.3125-14.320312-23.785156-24-41.503906-24s-33.191406 9.679688-41.503906 24h-22.496094v-56h112v16c0 8.832031 7.167969 16 16 16s16-7.167969 16-16v-16h127.984375.03125.03125 47.953125zm0 0" fill="#a8b1b6"/></svg>
