<svg xmlns="http://www.w3.org/2000/svg" viewBox="0 0 103.11 118.8"><defs><style>.cls-1{fill:#010101;}</style></defs><title>Asset 5</title><g id="Layer_2" data-name="Layer 2"><g id="Layer_1-2" data-name="Layer 1"><path class="cls-1" d="M69.49,118.8c-7.75,0-9.92-11.19-12-22-1.32-6.8-3.12-16.1-5.92-16.1S47,90,45.64,96.79c-2.1,10.82-4.27,22-12,22-4.39,0-9.28-5.55-13.09-14.84C12,83,0,44.39,0,29.14,0,17.87,7.91,0,29.14,0A46.56,46.56,0,0,1,43.71,2.6C49.44,4.35,54,5.74,61.5,2.69A29.37,29.37,0,0,1,74,0c21.23,0,29.14,17.87,29.14,29.14,0,15.25-12,53.85-20.54,74.82C78.77,113.25,73.88,118.8,69.49,118.8ZM51.55,76.21c6.49,0,8.35,9.58,10.32,19.72,1.59,8.19,3.56,18.39,7.62,18.39,1.3,0,5.21-2.95,8.93-12.06C87.77,79.42,98.63,42.5,98.63,29.14c0-9.53-6.7-24.66-24.66-24.66A24.91,24.91,0,0,0,63.56,6.69l-.13,0h0a51.59,51.59,0,0,0-8.18,5c-4.59,3.2-8.92,6.22-14.89,6.22a2.24,2.24,0,0,1,0-4.48c4.1,0,7.42-2,11.07-4.54a41.21,41.21,0,0,1-9-2A42,42,0,0,0,29.14,4.48c-18,0-24.66,15.13-24.66,24.66,0,13.36,10.86,50.28,20.2,73.12,3.73,9.11,7.64,12.06,8.94,12.06,4.05,0,6-10.2,7.62-18.39C43.21,85.79,45.07,76.21,51.55,76.21Z"/><path class="cls-1" d="M89.25,47.07a2.48,2.48,0,0,1-.54-.06,2.24,2.24,0,0,1-1.64-2.72c.61-2.44,1.11-4.67,1.49-6.62a2.26,2.26,0,0,1,2.64-1.76A2.23,2.23,0,0,1,93,38.54c-.4,2-.92,4.32-1.54,6.83A2.24,2.24,0,0,1,89.25,47.07Z"/><path class="cls-1" d="M91.9,31.38a2.24,2.24,0,0,1-2.24-2.24c0-6.07-4.26-15.69-15.69-15.69A2.24,2.24,0,1,1,74,9c14.7,0,20.17,12.37,20.17,20.17A2.24,2.24,0,0,1,91.9,31.38Z"/></g></g></svg>