<svg xmlns="http://www.w3.org/2000/svg" viewBox="0 0 121.09 143.8"><defs><style>.cls-1{fill:#010101;}</style></defs><title>Asset 2</title><g id="Layer_2" data-name="Layer 2"><g id="Layer_1-2" data-name="Layer 1"><path class="cls-1" d="M73.16,70.64H70.64a2.56,2.56,0,0,1-1.79-.74l-6.7-6.7A22.56,22.56,0,0,1,55.5,47.14V14.7a7.52,7.52,0,0,1,2.22-5.35l4.61-4.61a7.52,7.52,0,0,1,5.35-2.22h3a2.53,2.53,0,0,1,0,5.05h-3a2.48,2.48,0,0,0-1.78.74l-4.61,4.61a2.5,2.5,0,0,0-.74,1.78V47.14a17.53,17.53,0,0,0,5.17,12.49l6,6h1.48a2.53,2.53,0,0,1,0,5Z"/><path class="cls-1" d="M106,70.64h-2.53a2.53,2.53,0,0,1,0-5h1.48l6-6a17.57,17.57,0,0,0,5.17-12.49V14.7a2.54,2.54,0,0,0-.74-1.78L110.7,8.31a2.5,2.5,0,0,0-1.79-.74h-3a2.53,2.53,0,1,1,0-5.05h3a7.52,7.52,0,0,1,5.35,2.22l4.62,4.61a7.51,7.51,0,0,1,2.21,5.35V47.14a22.56,22.56,0,0,1-6.65,16.06l-6.7,6.7A2.52,2.52,0,0,1,106,70.64Z"/><path class="cls-1" d="M90.82,93.34h-5a5,5,0,0,1-5-5V78.21h-5a5.05,5.05,0,0,1-5-5v-5a5,5,0,0,1,5-5.05h25.23a5.06,5.06,0,0,1,5,5.05v5a5.06,5.06,0,0,1-5,5h-5V88.3A5.05,5.05,0,0,1,90.82,93.34ZM75.68,68.12v5h5a5,5,0,0,1,5,5V88.3h5V78.21a5,5,0,0,1,5.05-5h5v-5Z"/><path class="cls-1" d="M78.21,10.09h-5A5,5,0,0,1,73.16,0h5a5,5,0,0,1,0,10.09Zm0-5h0Z"/><path class="cls-1" d="M103.43,10.09h-5A5,5,0,1,1,98.39,0h5a5,5,0,1,1,0,10.09Zm0-5h0Z"/><path class="cls-1" d="M88.3,108.48A2.52,2.52,0,0,1,85.77,106V90.82a2.53,2.53,0,0,1,5,0V106A2.52,2.52,0,0,1,88.3,108.48Z"/><path class="cls-1" d="M17.66,108.48A2.52,2.52,0,0,1,15.14,106V53a2.52,2.52,0,0,1,5,0v53A2.52,2.52,0,0,1,17.66,108.48Z"/><path class="cls-1" d="M53,143.8A37.88,37.88,0,0,1,15.14,106a2.52,2.52,0,1,1,5,0,32.8,32.8,0,0,0,65.59,0,2.53,2.53,0,1,1,5,0A37.89,37.89,0,0,1,53,143.8Z"/><path class="cls-1" d="M17.66,55.5A17.66,17.66,0,1,1,35.32,37.84,17.68,17.68,0,0,1,17.66,55.5Zm0-30.27A12.62,12.62,0,1,0,30.27,37.84,12.62,12.62,0,0,0,17.66,25.23Z"/><path class="cls-1" d="M17.66,45.41a7.57,7.57,0,1,1,7.57-7.57A7.58,7.58,0,0,1,17.66,45.41Zm0-10.09a2.52,2.52,0,1,0,2.52,2.52A2.52,2.52,0,0,0,17.66,35.32Z"/></g></g></svg>