<svg xmlns="http://www.w3.org/2000/svg" viewBox="0 0 124.92 142.92"><defs><style>.cls-1{fill:#231f20;}</style></defs><title>Asset 11</title><g id="Layer_2" data-name="Layer 2"><g id="Layer_1-2" data-name="Layer 1"><g id="Layer_1-2-2" data-name="Layer 1-2"><path class="cls-1" d="M62.46,73.64A36.82,36.82,0,1,1,99.28,36.82,36.87,36.87,0,0,1,62.46,73.64ZM62.46,6A30.82,30.82,0,1,0,93.28,36.82,30.86,30.86,0,0,0,62.46,6Z"/><path class="cls-1" d="M63.34,142.92H61.56a244.69,244.69,0,0,1-47.82-4.73c-4-.81-7.84-1.73-11.53-2.73L0,134.85V98.36A28.48,28.48,0,0,1,28.44,69.91H40.2l.77.53a38.25,38.25,0,0,0,43,0l.77-.53H96.49a28.44,28.44,0,0,1,28.43,28.45v36.49l-2.21.61c-3.69,1-7.57,1.92-11.52,2.73A244.91,244.91,0,0,1,63.34,142.92Zm-.89-6A238.63,238.63,0,0,0,110,132.31c3-.62,6-1.31,8.92-2.06V98.36A22.45,22.45,0,0,0,96.49,75.91l0-3v3H86.56a44.28,44.28,0,0,1-48.2,0H28.44A22.46,22.46,0,0,0,6,98.34v31.91c2.89.75,5.88,1.44,8.93,2.06A237.31,237.31,0,0,0,62.45,136.92Z"/></g></g></g></svg>