<svg xmlns="http://www.w3.org/2000/svg" viewBox="0 0 161.91 141.38"><defs><style>.cls-1{fill:#010101;}</style></defs><title>Asset 8</title><g id="Layer_2" data-name="Layer 2"><g id="Layer_1-2" data-name="Layer 1"><path class="cls-1" d="M105.36,56.53H89.94A2.56,2.56,0,0,1,87.37,54v-7.7H79.66a2.57,2.57,0,0,1-2.57-2.57V28.27a2.57,2.57,0,0,1,2.57-2.57h7.71V18a2.57,2.57,0,0,1,2.57-2.57h15.42A2.57,2.57,0,0,1,107.93,18V25.7h7.71a2.57,2.57,0,0,1,2.57,2.57V43.69a2.57,2.57,0,0,1-2.57,2.57h-7.71V54A2.56,2.56,0,0,1,105.36,56.53ZM92.51,51.39h10.28v-7.7a2.57,2.57,0,0,1,2.57-2.57h7.71V30.84h-7.71a2.57,2.57,0,0,1-2.57-2.57V20.56H92.51v7.71a2.57,2.57,0,0,1-2.57,2.57H82.23V41.12h7.71a2.57,2.57,0,0,1,2.57,2.57Z"/><path class="cls-1" d="M89.3,121a12.51,12.51,0,0,1-8.88-3.54L65,102a2.57,2.57,0,1,1,3.63-3.64l15.42,15.42a7.84,7.84,0,0,0,8.19,1.53,8,8,0,0,0,5.45-6.95,9.14,9.14,0,0,0-2.77-7.28L79.79,86a12.74,12.74,0,0,0-9.08-3.77h-27a2.57,2.57,0,0,1,0-5.14h27a17.87,17.87,0,0,1,12.72,5.27L98.55,97.49a14.15,14.15,0,0,1,4.25,11.44A13.14,13.14,0,0,1,94,120.2,14,14,0,0,1,89.3,121Z"/><path class="cls-1" d="M88.69,141.38a28.74,28.74,0,0,1-14.79-4.1L50.68,123.35h-7a2.57,2.57,0,0,1,0-5.14H51.4a2.49,2.49,0,0,1,1.32.37l23.83,14.29a23.57,23.57,0,0,0,25.86-1l53.47-38.19a2.13,2.13,0,0,0,.27-3.25l-1.1-1.1a15.27,15.27,0,0,0-15.69-3.7L95.89,100.09a2.57,2.57,0,1,1-1.62-4.88l43.46-14.48a20.35,20.35,0,0,1,21,4.94l1.09,1.09a7.27,7.27,0,0,1-.92,11.07L105.4,136A28.72,28.72,0,0,1,88.69,141.38Z"/><path class="cls-1" d="M43.69,131.06H18a2.57,2.57,0,0,1-2.57-2.57V72A2.57,2.57,0,0,1,18,69.38h25.7A2.57,2.57,0,0,1,46.26,72v56.54A2.57,2.57,0,0,1,43.69,131.06Zm-23.13-5.14H41.12V74.52H20.56Z"/><path class="cls-1" d="M18,141.34H2.57A2.57,2.57,0,0,1,0,138.77v-72a2.57,2.57,0,0,1,2.57-2.57H18a2.57,2.57,0,0,1,2.57,2.57v72A2.57,2.57,0,0,1,18,141.34ZM5.14,136.2H15.42V69.38H5.14Z"/><circle class="cls-1" cx="33.41" cy="115.64" r="5.14"/><path class="cls-1" d="M97.65,72a36,36,0,1,1,36-36A36,36,0,0,1,97.65,72Zm0-66.81A30.84,30.84,0,1,0,128.49,36,30.88,30.88,0,0,0,97.65,5.14Z"/></g></g></svg>