<svg xmlns="http://www.w3.org/2000/svg" viewBox="0 0 136.75 79.87"><defs><style>.cls-1{fill:#010101;}</style></defs><title>Asset 1</title><g id="Layer_2" data-name="Layer 2"><g id="Layer_1-2" data-name="Layer 1"><path class="cls-1" d="M30.56,79.87A9.71,9.71,0,0,1,22,74.82L1.36,36.92A11.05,11.05,0,0,1,4.17,23C15,14.39,37.68,0,68.37,0s53.41,14.39,64.21,23a11,11,0,0,1,2.8,14l-20.67,37.9a9.72,9.72,0,0,1-12.08,4.37A93.56,93.56,0,0,0,68.37,73a93.5,93.5,0,0,0-34.25,6.24A9.66,9.66,0,0,1,30.56,79.87ZM68.37,4.56c-29.31,0-51,13.77-61.37,22a6.47,6.47,0,0,0-1.63,8.2L26,72.64A5.14,5.14,0,0,0,32.44,75a98.12,98.12,0,0,1,35.93-6.56A98,98,0,0,1,104.3,75a5.16,5.16,0,0,0,6.41-2.31l20.67-37.91a6.48,6.48,0,0,0-1.64-8.2C119.41,18.33,97.69,4.56,68.37,4.56Z"/><path class="cls-1" d="M68.37,63.83A27.36,27.36,0,1,1,95.73,36.47,27.38,27.38,0,0,1,68.37,63.83Zm0-50.15a22.8,22.8,0,1,0,22.8,22.79A22.82,22.82,0,0,0,68.37,13.68Z"/><path class="cls-1" d="M72.93,52.43H63.82a2.28,2.28,0,0,1-2.28-2.28V43.31H54.7A2.28,2.28,0,0,1,52.42,41V31.91a2.28,2.28,0,0,1,2.28-2.28h6.84V22.8a2.28,2.28,0,0,1,2.28-2.28h9.11a2.28,2.28,0,0,1,2.28,2.28v6.83h6.84a2.28,2.28,0,0,1,2.28,2.28V41a2.28,2.28,0,0,1-2.28,2.28H75.21v6.84A2.28,2.28,0,0,1,72.93,52.43Zm-6.84-4.56h4.56V41a2.28,2.28,0,0,1,2.28-2.28h6.84V34.19H72.93a2.28,2.28,0,0,1-2.28-2.28V25.07H66.09v6.84a2.27,2.27,0,0,1-2.27,2.28H57v4.56h6.84A2.27,2.27,0,0,1,66.09,41Z"/><path class="cls-1" d="M100,78.06a2.28,2.28,0,0,1-2-3.41l11.54-20.19a2.28,2.28,0,1,1,4,2.26L102,76.91A2.27,2.27,0,0,1,100,78.06Z"/><path class="cls-1" d="M114.87,52a2.28,2.28,0,0,1-2-3.41l3.66-6.4a2.28,2.28,0,1,1,4,2.26l-3.65,6.4A2.27,2.27,0,0,1,114.87,52Z"/></g></g></svg>