<svg xmlns="http://www.w3.org/2000/svg" viewBox="0 0 121.36 85.32"><defs><style>.cls-1{fill:#010101;}</style></defs><title>Asset 3</title><g id="Layer_2" data-name="Layer 2"><g id="Layer_1-2" data-name="Layer 1"><path class="cls-1" d="M60.68,85.32c-31.06,0-49.65-17.64-58-28.16h0a12.49,12.49,0,0,1,0-15.53c8.32-10.52,26.91-28.16,58-28.16s49.65,17.64,58,28.16a12.46,12.46,0,0,1,0,15.53C110.33,67.68,91.74,85.32,60.68,85.32Zm0-67.36C31.52,18,14.05,34.54,6.23,44.42a8,8,0,0,0,0,9.95h0c7.82,9.88,25.28,26.46,54.45,26.46s46.63-16.58,54.45-26.46a8,8,0,0,0,0-10C107.31,34.54,89.85,18,60.68,18Z"/><path class="cls-1" d="M110.08,18a2.25,2.25,0,0,1-1.5-.57c-.14-.12-15-12.9-47.9-12.9-33.06,0-47.75,12.77-47.9,12.9a2.25,2.25,0,0,1-3-3.35c.64-.57,16.13-14,50.89-14s50.25,13.47,50.89,14A2.25,2.25,0,0,1,110.08,18Z"/><path class="cls-1" d="M60.68,85.32A35.93,35.93,0,1,1,96.61,49.39,36,36,0,0,1,60.68,85.32Zm0-67.36A31.44,31.44,0,1,0,92.11,49.39,31.47,31.47,0,0,0,60.68,18Z"/><path class="cls-1" d="M60.68,67.36a18,18,0,1,1,18-18A18,18,0,0,1,60.68,67.36Zm0-31.44A13.48,13.48,0,1,0,74.15,49.39,13.49,13.49,0,0,0,60.68,35.92Z"/></g></g></svg>