<svg xmlns="http://www.w3.org/2000/svg" viewBox="0 0 185.92 166.5"><defs><style>.cls-1{fill:#231f20;}</style></defs><title>Asset 7</title><g id="Layer_2" data-name="Layer 2"><g id="Layer_1-2" data-name="Layer 1"><path class="cls-1" d="M115.73,144.69H95.09a2,2,0,0,1-1.68-.92l-17.1-26.69L59.14,143.77a2,2,0,0,1-1.68.92H36.94a2,2,0,0,1-1.75-1.05,2,2,0,0,1,.08-2L63.5,98.49,42.8,68c-4.23-6.34-7.13-10.35-8.64-12a10.88,10.88,0,0,0-4.24-2.93l-.09,0a1.93,1.93,0,0,1-1.43-1.91V37.09a2,2,0,0,1,2-2h.75c9.69,0,13.19-.5,14.41-.91a7,7,0,0,0,3.69-2.74,9,9,0,0,0,1.35-5.11,7.91,7.91,0,0,0-1.75-5.44,8.17,8.17,0,0,0-5.07-2.59c-1.31-.12-14.37-.21-23.59-.26V85a2,2,0,0,1-2,2H2a2,2,0,0,1-2-2V2A2,2,0,0,1,2,0H37.26c9.19,0,15.74.77,20,2.36a21.1,21.1,0,0,1,10.64,8.76,25.93,25.93,0,0,1,3.93,14.14c0,6.71-2,12.35-6,16.76a25.74,25.74,0,0,1-12.73,7.32A36.3,36.3,0,0,1,58.39,54c2.48,2.66,5.67,7.16,9.78,13.78l8.5,13.59L91.6,56.91a2,2,0,0,1,1.7-1h19.83A2,2,0,0,1,114.81,59L89.16,99.08l28.23,42.5a2,2,0,0,1,.1,2A2,2,0,0,1,115.73,144.69Zm-19.54-4H112L85.1,100.21a2,2,0,0,1,0-2.18L109.47,60h-15L78.36,86.22a2,2,0,0,1-3.61-.43l-10-15.94c-3.91-6.32-7-10.74-9.3-13.17A37.62,37.62,0,0,0,47,50.08,2,2,0,0,1,46,48a2,2,0,0,1,1.68-1.6c6.76-1,11.88-3.34,15.21-7s5-8.31,5-14.08a22,22,0,0,0-3.31-12A17,17,0,0,0,55.9,6.11C52.11,4.71,45.84,4,37.26,4H4V83H16.19V16a2,2,0,0,1,.59-1.42A2,2,0,0,1,18.19,14h0c5.78,0,24.74.11,26.12.29h.07a12.27,12.27,0,0,1,7.49,3.93,11.91,11.91,0,0,1,2.72,8.06,12.85,12.85,0,0,1-2,7.36A11,11,0,0,1,46.85,38c-1.37.47-4.36,1.08-14.45,1.13V49.85a15.44,15.44,0,0,1,4.67,3.5c1.69,1.78,4.64,5.86,9,12.46L67.56,97.34a2,2,0,0,1,0,2.23L40.65,140.69H56.37L74.63,112.3a2,2,0,0,1,1.68-.92h0a2,2,0,0,1,1.68.92Z"/><path class="cls-1" d="M177.23,70.94h-64.5A2,2,0,0,1,111,67.87l8.57-13.51a2,2,0,0,1,1.68-.93h55.94a8.7,8.7,0,0,1,8.69,8.69v.13A8.7,8.7,0,0,1,177.23,70.94Zm-60.86-4h60.86a4.69,4.69,0,0,0,4.69-4.69v-.13a4.7,4.7,0,0,0-4.69-4.69H122.4Z"/><path class="cls-1" d="M162.43,51.79H141.21a2,2,0,0,1-1.82-1.15,2,2,0,0,1,.29-2.13L169,13.68a2,2,0,0,1,2.68-.34l8.69,6.15a2,2,0,0,1,.57,2.64L164.15,50.81A2,2,0,0,1,162.43,51.79Zm-16.92-4h15.77l15.32-26.1-5.69-4Z"/><path class="cls-1" d="M136.52,145.74H125.36a2,2,0,0,1-1.66-.89l-30-45a2,2,0,0,1,0-2.18l15.21-24a2,2,0,0,1,1.69-.93H177.2a2,2,0,0,1,2,2.15,163.22,163.22,0,0,1-7.12,35C164.29,133.34,152,145.74,136.52,145.74Zm-10.09-4h10.09c29.85,0,37.24-53.48,38.48-65H111.63l-13.93,22Z"/><path class="cls-1" d="M149.63,166.5H76.78A2,2,0,0,1,74.84,165a14.75,14.75,0,0,1,14.31-18.28h48.12A14.72,14.72,0,0,1,151.57,165,2,2,0,0,1,149.63,166.5Zm-71.17-4H148c0-.36,0-.72,0-1.07a10.75,10.75,0,0,0-10.74-10.74H89.15a10.75,10.75,0,0,0-10.74,10.74C78.41,161.78,78.43,162.14,78.46,162.5Z"/></g></g></svg>