<svg xmlns="http://www.w3.org/2000/svg" viewBox="0 0 123.15 125.24"><defs><style>.cls-1{fill:#010101;}</style></defs><title>Asset 9</title><g id="Layer_2" data-name="Layer 2"><g id="Layer_1-2" data-name="Layer 1"><path class="cls-1" d="M116.89,125.24H48a2.09,2.09,0,1,1,0-4.18h68.88A2.09,2.09,0,0,0,119,119V35.48a2.09,2.09,0,0,0-2.09-2.08H50.09A2.08,2.08,0,0,0,48,35.48v75.15a2.09,2.09,0,0,1-4.18,0V35.48a6.27,6.27,0,0,1,6.26-6.26h66.8a6.27,6.27,0,0,1,6.26,6.26V119A6.27,6.27,0,0,1,116.89,125.24Z"/><path class="cls-1" d="M112.71,33.4a2.09,2.09,0,0,1-2.08-2.09v-25a2.1,2.1,0,0,0-2.09-2.09H58.44a2.09,2.09,0,0,0-2.08,2.09v25a2.09,2.09,0,1,1-4.18,0v-25A6.27,6.27,0,0,1,58.44,0h50.1a6.27,6.27,0,0,1,6.26,6.26v25A2.09,2.09,0,0,1,112.71,33.4Z"/><path class="cls-1" d="M71,25.05A2.1,2.1,0,0,1,68.88,23V10.44a2.09,2.09,0,1,1,4.18,0V23A2.1,2.1,0,0,1,71,25.05Z"/><path class="cls-1" d="M79.32,25.05A2.09,2.09,0,0,1,77.23,23V10.44a2.09,2.09,0,1,1,4.17,0V23A2.09,2.09,0,0,1,79.32,25.05Z"/><path class="cls-1" d="M87.67,25.05A2.09,2.09,0,0,1,85.58,23V10.44a2.09,2.09,0,1,1,4.17,0V23A2.09,2.09,0,0,1,87.67,25.05Z"/><path class="cls-1" d="M96,25.05A2.09,2.09,0,0,1,93.93,23V10.44a2.09,2.09,0,1,1,4.17,0V23A2.09,2.09,0,0,1,96,25.05Z"/><path class="cls-1" d="M104.36,25.05A2.09,2.09,0,0,1,102.28,23V10.44a2.09,2.09,0,1,1,4.17,0V23A2.09,2.09,0,0,1,104.36,25.05Z"/><path class="cls-1" d="M121.06,112.71h-48a6.27,6.27,0,0,1-6.27-6.26V48a6.27,6.27,0,0,1,6.27-6.26h48a2.08,2.08,0,0,1,2.09,2.08v66.8A2.08,2.08,0,0,1,121.06,112.71Zm-48-66.79A2.09,2.09,0,0,0,71,48v58.44a2.09,2.09,0,0,0,2.09,2.09H119V45.92Z"/><path class="cls-1" d="M112.71,96H100.19a2.1,2.1,0,0,1-2.09-2.09V85.58H89.75a2.09,2.09,0,0,1-2.08-2.09V71a2.09,2.09,0,0,1,2.08-2.09H98.1V60.53a2.1,2.1,0,0,1,2.09-2.09h12.52a2.09,2.09,0,0,1,2.09,2.09v8.35h6.26A2.09,2.09,0,0,1,123.15,71V83.49a2.09,2.09,0,0,1-2.09,2.09H114.8v8.35A2.09,2.09,0,0,1,112.71,96Zm-10.43-4.18h8.35V83.49a2.09,2.09,0,0,1,2.08-2.09H119V73.06h-6.27A2.09,2.09,0,0,1,110.63,71V62.62h-8.35V71a2.1,2.1,0,0,1-2.09,2.09H91.84V81.4h8.35a2.1,2.1,0,0,1,2.09,2.09Z"/><path class="cls-1" d="M77.23,112.71a2.09,2.09,0,0,1-2.09-2.08v-23a2.09,2.09,0,1,1,4.18,0v23A2.09,2.09,0,0,1,77.23,112.71Z"/><path class="cls-1" d="M77.23,81.4a2.09,2.09,0,0,1-2.09-2.08V71a2.09,2.09,0,1,1,4.18,0v8.35A2.09,2.09,0,0,1,77.23,81.4Z"/><path class="cls-1" d="M48,125.24H27.13a8.35,8.35,0,0,1,0-16.7H48a8.35,8.35,0,1,1,0,16.7ZM27.13,112.71a4.18,4.18,0,0,0,0,8.35H48a4.18,4.18,0,0,0,0-8.35Z"/><path class="cls-1" d="M37.57,125.24a2.1,2.1,0,0,1-2.09-2.09V110.63a2.09,2.09,0,1,1,4.18,0v12.52A2.1,2.1,0,0,1,37.57,125.24Z"/><path class="cls-1" d="M8.35,125.24A8.35,8.35,0,0,1,0,116.89a7.88,7.88,0,0,1,2.7-5.65L17.31,96.63A7.88,7.88,0,0,1,23,93.93h0a8.3,8.3,0,0,1,5.9,2.44h0a8.31,8.31,0,0,1,2.45,5.91,7.92,7.92,0,0,1-2.7,5.65L14,122.54A7.94,7.94,0,0,1,8.35,125.24ZM23,98.1h0c-.53,0-1.38.16-2.7,1.48L5.65,114.19c-1.32,1.32-1.48,2.17-1.48,2.7a4.18,4.18,0,0,0,4.18,4.17c.52,0,1.38-.15,2.7-1.47L25.66,105c1.32-1.33,1.47-2.18,1.47-2.7a4.11,4.11,0,0,0-1.22-3h0A4.14,4.14,0,0,0,23,98.1Z"/><path class="cls-1" d="M18.79,116.89a2.12,2.12,0,0,1-1.48-.61L9,107.93a2.09,2.09,0,0,1,2.95-3l8.35,8.35a2.08,2.08,0,0,1,0,3A2.11,2.11,0,0,1,18.79,116.89Z"/></g></g></svg>