<svg xmlns="http://www.w3.org/2000/svg" viewBox="0 0 113.78 140.99"><defs><style>.cls-1{fill:#010101;}</style></defs><title>Asset 4</title><g id="Layer_2" data-name="Layer 2"><g id="Layer_1-2" data-name="Layer 1"><path class="cls-1" d="M32.16,131.09a2.47,2.47,0,0,1-1.75-.72L10.62,110.58a2.47,2.47,0,0,1,1.75-4.22H27.21a7.43,7.43,0,0,1,7.42,7.42v14.84a2.48,2.48,0,0,1-1.53,2.29A2.57,2.57,0,0,1,32.16,131.09ZM18.34,111.31l11.34,11.34v-8.87a2.48,2.48,0,0,0-2.47-2.47Z"/><path class="cls-1" d="M106.36,141H7.42A7.43,7.43,0,0,1,0,133.57V12.37A7.43,7.43,0,0,1,7.42,5H37.1a2.47,2.47,0,0,1,2.48,2.47v9.89a2.48,2.48,0,0,1-2.48,2.48H17.31a2.48,2.48,0,0,0-2.47,2.47v85.55l18.34,18.34H96.47a2.48,2.48,0,0,0,2.47-2.48V22.26a2.48,2.48,0,0,0-2.47-2.47H76.68a2.48,2.48,0,0,1-2.48-2.48V7.42A2.47,2.47,0,0,1,76.68,5h29.68a7.43,7.43,0,0,1,7.42,7.42v121.2A7.43,7.43,0,0,1,106.36,141ZM7.42,9.89A2.48,2.48,0,0,0,5,12.37v121.2A2.48,2.48,0,0,0,7.42,136h98.94a2.48,2.48,0,0,0,2.47-2.47V12.37a2.48,2.48,0,0,0-2.47-2.48H79.15v4.95H96.47a7.43,7.43,0,0,1,7.42,7.42V123.67a7.42,7.42,0,0,1-7.42,7.42H32.16a2.47,2.47,0,0,1-1.75-.72L10.62,110.58a2.44,2.44,0,0,1-.73-1.75V22.26a7.43,7.43,0,0,1,7.42-7.42H34.63V9.89Z"/><path class="cls-1" d="M76.68,24.73H37.1a2.46,2.46,0,0,1-2.47-2.47V2.47A2.47,2.47,0,0,1,37.1,0H76.68a2.48,2.48,0,0,1,2.47,2.47V22.26A2.47,2.47,0,0,1,76.68,24.73Zm-37.1-4.94H74.2V5H39.58Z"/><path class="cls-1" d="M64.31,76.68H49.47A2.47,2.47,0,0,1,47,74.2V66.78H39.58a2.47,2.47,0,0,1-2.48-2.47V49.47A2.47,2.47,0,0,1,39.58,47H47V39.58a2.47,2.47,0,0,1,2.47-2.48H64.31a2.47,2.47,0,0,1,2.47,2.48V47H74.2a2.47,2.47,0,0,1,2.48,2.47V64.31a2.47,2.47,0,0,1-2.48,2.47H66.78V74.2A2.47,2.47,0,0,1,64.31,76.68Zm-12.37-5h9.9V64.31a2.46,2.46,0,0,1,2.47-2.47h7.42v-9.9H64.31a2.46,2.46,0,0,1-2.47-2.47V42.05h-9.9v7.42a2.46,2.46,0,0,1-2.47,2.47H42.05v9.9h7.42a2.46,2.46,0,0,1,2.47,2.47Z"/><path class="cls-1" d="M86.57,86.57H27.21a2.48,2.48,0,1,1,0-4.95H86.57a2.48,2.48,0,0,1,0,4.95Z"/><path class="cls-1" d="M49.47,96.47H34.63a2.48,2.48,0,0,1,0-5H49.47a2.48,2.48,0,0,1,0,5Z"/><path class="cls-1" d="M79.15,96.47H59.36a2.48,2.48,0,0,1,0-5H79.15a2.48,2.48,0,0,1,0,5Z"/></g></g></svg>