<svg xmlns="http://www.w3.org/2000/svg" viewBox="0 0 156.14 162.12"><defs><style>.cls-1{fill:#231f20;}.cls-2{fill:#fff;}</style></defs><title>Asset 6</title><g id="Layer_2" data-name="Layer 2"><g id="Layer_1-2" data-name="Layer 1"><path class="cls-1" d="M106.62,41.29a2.39,2.39,0,0,1-1.31-.39c-7.07-4.37-23.49-15.7-24.44-27.17-.33-4,1.21-7.52,4.57-10.47a13.12,13.12,0,0,1,18.2.86l3,3.13,3-3.14a13.12,13.12,0,0,1,18.19-.85h0c3.37,2.94,4.91,6.47,4.58,10.47-1,11.51-17.45,22.86-24.5,27.2A2.37,2.37,0,0,1,106.62,41.29ZM94.1,4.75a8.37,8.37,0,0,0-5.53,2.09c-2.2,1.92-3.18,4.05-3,6.5.61,7.32,11,16.41,21,22.77,10-6.36,20.4-15.44,21-22.77.2-2.46-.77-4.58-3-6.5h0A8.37,8.37,0,0,0,113,7.38l-4.7,5a2.38,2.38,0,0,1-1.7.74,2.41,2.41,0,0,1-1.7-.69l-4.74-5A8.41,8.41,0,0,0,94.1,4.75Z"/><path class="cls-1" d="M132.14,162H64.8a2.38,2.38,0,0,1-2.38-2.37c0-8.67,4.67-13,7-14.69V133.34c-8.24-20.7-3.27-41.69-.88-49.44-7-.64-17.69-3.73-19.41-16.53a6.14,6.14,0,0,1,6.11-7h11.2c3.59-8.3,12.37-9.85,16.82-9.46,5.22.17,9.25,2.09,12,5.72,5.41,7.18,3.87,19,3,23.67,29.07,14.38,35.94,76.35,36.22,79a2.37,2.37,0,0,1-2.36,2.62Zm-64.81-4.75h62.12c-1.67-12.2-10.07-63.14-34.8-73.35a2.37,2.37,0,0,1-1.39-2.78c0-.14,3.59-14.52-1.76-21.6-1.86-2.47-4.61-3.72-8.4-3.83h-.16c-.39,0-9.83-.75-12.54,7.82a2.38,2.38,0,0,1-2.26,1.66H55.29a1.4,1.4,0,0,0-1.07.48,1.42,1.42,0,0,0-.34,1.13c.77,5.73,4.51,12.56,18,12.56a2.38,2.38,0,0,1,2.21,3.24c-.1.25-9.72,25.61,0,49.44a2.52,2.52,0,0,1,.17.9v13.36a2.37,2.37,0,0,1-1.36,2.14C72.67,148.48,68.24,150.76,67.33,157.22Z"/><path class="cls-1" d="M92.79,162a2.37,2.37,0,0,1-2.26-1.66c-2-6.56,2-11.74,5.73-14.58a23.28,23.28,0,0,1-2.11-27.32,2.37,2.37,0,1,1,3.91,2.69c-.33.5-7.72,11.77,3.52,23.5a2.38,2.38,0,0,1-.63,3.75c-.31.16-7.87,4.21-5.89,10.54a2.37,2.37,0,0,1-1.56,3A2.45,2.45,0,0,1,92.79,162Z"/><path class="cls-1" d="M135,162.12a27,27,0,0,1-3.2-.17,2.38,2.38,0,0,1,.62-4.71c.15,0,11.16,1.34,16.25-5.05,3.73-4.68,3.62-12.52-.34-23.3a2.38,2.38,0,0,1,4.46-1.64c4.57,12.46,4.43,21.85-.43,27.92S139.49,162.12,135,162.12Z"/><path class="cls-2" d="M78.46,59.33,81.29,46s12.49,4.16,8.26,18.24"/><path class="cls-1" d="M89.55,66.58a2.33,2.33,0,0,1-.68-.1,2.37,2.37,0,0,1-1.59-3c2.44-8.12-1.46-12.24-4.3-14.08l-2.2,10.38a2.37,2.37,0,1,1-4.64-1L79,45.47A2.38,2.38,0,0,1,82,43.71c.14,0,14.62,5.07,9.79,21.18A2.39,2.39,0,0,1,89.55,66.58Z"/><path class="cls-1" d="M21.12,162.12c-4.47,0-12.54-.92-17.37-7s-5-15.46-.42-27.92a2.37,2.37,0,1,1,4.45,1.64c-4,10.79-4.07,18.63-.32,23.31,5.13,6.42,16.12,5.06,16.23,5a2.38,2.38,0,0,1,.62,4.71A26.87,26.87,0,0,1,21.12,162.12Z"/><path class="cls-1" d="M64.8,162H24a2.38,2.38,0,0,1-2.33-1.91C18.42,143.75,24.91,138,28,136.19l3.4-24.49a2.38,2.38,0,0,1,1.48-1.88l10.67-4.21a2.28,2.28,0,0,1,1.74,0l10.67,4.21a2.38,2.38,0,0,1,1.48,1.88l3.4,24.49c3.06,1.77,9.56,7.56,6.31,23.87A2.39,2.39,0,0,1,64.8,162ZM26,157.22H62.81c2.27-14.49-4.8-17.16-4.88-17.19a2.36,2.36,0,0,1-1.63-1.93l-3.4-24.38-8.5-3.36-8.51,3.36L32.5,138.1A2.36,2.36,0,0,1,30.87,140C30.6,140.13,23.71,142.77,26,157.22Z"/><path class="cls-2" d="M60.59,88.87l-8.26,4H36.47l-8.26-4a1.87,1.87,0,0,0-2.53,2.43l3.07,7S25.48,118,44.4,118,60.05,98.31,60.05,98.31l3.07-7A1.87,1.87,0,0,0,60.59,88.87Z"/><path class="cls-1" d="M44.4,120.33c-6.15,0-10.87-1.9-14-5.64-4.76-5.62-4.32-13.58-4.05-16l-2.8-6.41a4.24,4.24,0,0,1,5.73-5.52L37,90.48H51.79l7.77-3.75a4.24,4.24,0,0,1,5.73,5.52l-2.8,6.41c.27,2.45.71,10.41-4.05,16C55.27,118.43,50.55,120.33,44.4,120.33ZM28.4,91.6l2.53,5.76a2.37,2.37,0,0,1,.16,1.34c0,.08-1.25,8.06,2.91,12.94,2.22,2.61,5.72,3.94,10.4,3.94s8.18-1.33,10.4-3.94c4.16-4.88,2.92-12.86,2.91-12.94a2.37,2.37,0,0,1,.16-1.34L60.4,91.6l-7,3.39a2.29,2.29,0,0,1-1,.24H36.47a2.37,2.37,0,0,1-1-.24ZM61.62,91Zm-1-2.13h0Z"/><path class="cls-1" d="M47,109.69h-5.1a2.37,2.37,0,0,1,0-4.74H47a2.37,2.37,0,1,1,0,4.74Z"/><path class="cls-1" d="M80.89,148.61h-9a2.38,2.38,0,1,1,0-4.75h9a2.38,2.38,0,0,1,0,4.75Z"/><path class="cls-1" d="M111,148.61H99.86a2.38,2.38,0,0,1,0-4.75H111a2.38,2.38,0,0,1,0,4.75Z"/></g></g></svg>